<mxfile host="app.diagrams.net" modified="2023-09-04T16:06:30.918Z" agent="Mozilla/5.0 (Macintosh; Intel Mac OS X 10_15_7) AppleWebKit/537.36 (KHTML, like Gecko) Chrome/116.0.0.0 Safari/537.36" etag="ECSniJXYBvP1L-_Yn0YU" version="21.7.2" type="google">
  <diagram id="C5RBs43oDa-KdzZeNtuy" name="Page-1">
    <mxGraphModel grid="1" page="1" gridSize="10" guides="1" tooltips="1" connect="1" arrows="1" fold="1" pageScale="1" pageWidth="827" pageHeight="1169" math="0" shadow="0">
      <root>
        <mxCell id="WIyWlLk6GJQsqaUBKTNV-0" />
        <mxCell id="WIyWlLk6GJQsqaUBKTNV-1" parent="WIyWlLk6GJQsqaUBKTNV-0" />
        <mxCell id="WIyWlLk6GJQsqaUBKTNV-2" value="" style="rounded=0;html=1;jettySize=auto;orthogonalLoop=1;fontSize=11;endArrow=block;endFill=0;endSize=8;strokeWidth=1;shadow=0;labelBackgroundColor=none;edgeStyle=orthogonalEdgeStyle;" edge="1" parent="WIyWlLk6GJQsqaUBKTNV-1" source="WIyWlLk6GJQsqaUBKTNV-3" target="WIyWlLk6GJQsqaUBKTNV-6">
          <mxGeometry relative="1" as="geometry" />
        </mxCell>
        <mxCell id="WIyWlLk6GJQsqaUBKTNV-3" value="Audio File from User" style="rounded=1;whiteSpace=wrap;html=1;fontSize=12;glass=0;strokeWidth=1;shadow=0;" vertex="1" parent="WIyWlLk6GJQsqaUBKTNV-1">
          <mxGeometry x="-60" y="180" width="120" height="40" as="geometry" />
        </mxCell>
        <mxCell id="WIyWlLk6GJQsqaUBKTNV-4" value="" style="rounded=0;html=1;jettySize=auto;orthogonalLoop=1;fontSize=11;endArrow=block;endFill=0;endSize=8;strokeWidth=1;shadow=0;labelBackgroundColor=none;edgeStyle=orthogonalEdgeStyle;" edge="1" parent="WIyWlLk6GJQsqaUBKTNV-1" source="WIyWlLk6GJQsqaUBKTNV-6" target="WIyWlLk6GJQsqaUBKTNV-10">
          <mxGeometry y="20" relative="1" as="geometry">
            <mxPoint as="offset" />
          </mxGeometry>
        </mxCell>
        <mxCell id="WIyWlLk6GJQsqaUBKTNV-6" value="Download MP3s (spotify_dl)" style="rhombus;whiteSpace=wrap;html=1;shadow=0;fontFamily=Helvetica;fontSize=12;align=center;strokeWidth=1;spacing=6;spacingTop=-4;" vertex="1" parent="WIyWlLk6GJQsqaUBKTNV-1">
          <mxGeometry x="100" y="150" width="130" height="100" as="geometry" />
        </mxCell>
        <mxCell id="WIyWlLk6GJQsqaUBKTNV-7" value="Track IDs from Kaggle" style="rounded=1;whiteSpace=wrap;html=1;fontSize=12;glass=0;strokeWidth=1;shadow=0;" vertex="1" parent="WIyWlLk6GJQsqaUBKTNV-1">
          <mxGeometry x="-60" y="120" width="120" height="40" as="geometry" />
        </mxCell>
        <mxCell id="WIyWlLk6GJQsqaUBKTNV-10" value="Extract Audio Features" style="rhombus;whiteSpace=wrap;html=1;shadow=0;fontFamily=Helvetica;fontSize=12;align=center;strokeWidth=1;spacing=6;spacingTop=-4;" vertex="1" parent="WIyWlLk6GJQsqaUBKTNV-1">
          <mxGeometry x="260" y="150" width="130" height="100" as="geometry" />
        </mxCell>
        <mxCell id="WIyWlLk6GJQsqaUBKTNV-12" value="Mel Spectrum" style="rounded=1;whiteSpace=wrap;html=1;fontSize=12;glass=0;strokeWidth=1;shadow=0;" vertex="1" parent="WIyWlLk6GJQsqaUBKTNV-1">
          <mxGeometry x="414" y="160" width="120" height="40" as="geometry" />
        </mxCell>
        <mxCell id="1j8bGV-t7no6MhL90qJZ-6" value="" style="rounded=0;html=1;jettySize=auto;orthogonalLoop=1;fontSize=11;endArrow=block;endFill=0;endSize=8;strokeWidth=1;shadow=0;labelBackgroundColor=none;edgeStyle=orthogonalEdgeStyle;entryX=0;entryY=0.5;entryDx=0;entryDy=0;" edge="1" parent="WIyWlLk6GJQsqaUBKTNV-1" target="WIyWlLk6GJQsqaUBKTNV-6">
          <mxGeometry relative="1" as="geometry">
            <mxPoint x="60" y="139.5" as="sourcePoint" />
            <mxPoint x="160" y="200" as="targetPoint" />
            <Array as="points">
              <mxPoint x="80" y="140" />
              <mxPoint x="80" y="200" />
            </Array>
          </mxGeometry>
        </mxCell>
        <mxCell id="1j8bGV-t7no6MhL90qJZ-8" value="Chroma" style="rounded=1;whiteSpace=wrap;html=1;fontSize=12;glass=0;strokeWidth=1;shadow=0;" vertex="1" parent="WIyWlLk6GJQsqaUBKTNV-1">
          <mxGeometry x="414" y="200" width="120" height="40" as="geometry" />
        </mxCell>
        <mxCell id="1j8bGV-t7no6MhL90qJZ-10" value="MFCC" style="rounded=1;whiteSpace=wrap;html=1;fontSize=12;glass=0;strokeWidth=1;shadow=0;" vertex="1" parent="WIyWlLk6GJQsqaUBKTNV-1">
          <mxGeometry x="414" y="120" width="120" height="40" as="geometry" />
        </mxCell>
        <mxCell id="1j8bGV-t7no6MhL90qJZ-12" value="Tonnetz" style="rounded=1;whiteSpace=wrap;html=1;fontSize=12;glass=0;strokeWidth=1;shadow=0;" vertex="1" parent="WIyWlLk6GJQsqaUBKTNV-1">
          <mxGeometry x="414" y="240" width="120" height="40" as="geometry" />
        </mxCell>
        <mxCell id="1j8bGV-t7no6MhL90qJZ-13" value="Vectorized feature&lt;br&gt;(mean, max, min of features)&lt;br&gt;1x498" style="strokeWidth=2;html=1;shape=mxgraph.flowchart.multi-document;whiteSpace=wrap;" vertex="1" parent="WIyWlLk6GJQsqaUBKTNV-1">
          <mxGeometry x="364" y="340" width="220" height="90" as="geometry" />
        </mxCell>
        <mxCell id="1j8bGV-t7no6MhL90qJZ-21" value="" style="edgeStyle=orthogonalEdgeStyle;rounded=0;html=1;jettySize=auto;orthogonalLoop=1;fontSize=11;endArrow=block;endFill=0;endSize=8;strokeWidth=1;shadow=0;labelBackgroundColor=none;exitX=0.5;exitY=1;exitDx=0;exitDy=0;entryX=0.5;entryY=0;entryDx=0;entryDy=0;entryPerimeter=0;" edge="1" parent="WIyWlLk6GJQsqaUBKTNV-1" source="1j8bGV-t7no6MhL90qJZ-12" target="1j8bGV-t7no6MhL90qJZ-13">
          <mxGeometry relative="1" as="geometry">
            <mxPoint x="468" y="310" as="sourcePoint" />
            <mxPoint x="474" y="330" as="targetPoint" />
          </mxGeometry>
        </mxCell>
        <mxCell id="1j8bGV-t7no6MhL90qJZ-22" value="&lt;div style=&quot;&quot;&gt;&lt;span style=&quot;background-color: initial;&quot;&gt;CNN Images&lt;/span&gt;&lt;/div&gt;&lt;div style=&quot;&quot;&gt;&lt;span style=&quot;background-color: initial;&quot;&gt;(Mel Spectrum, Chroma, Tonnetz)&lt;br&gt;1x1000&lt;/span&gt;&lt;/div&gt;" style="strokeWidth=2;html=1;shape=mxgraph.flowchart.multi-document;whiteSpace=wrap;align=center;" vertex="1" parent="WIyWlLk6GJQsqaUBKTNV-1">
          <mxGeometry x="349" y="-20" width="250" height="90" as="geometry" />
        </mxCell>
        <mxCell id="1j8bGV-t7no6MhL90qJZ-23" value="" style="edgeStyle=orthogonalEdgeStyle;rounded=0;html=1;jettySize=auto;orthogonalLoop=1;fontSize=11;endArrow=block;endFill=0;endSize=8;strokeWidth=1;shadow=0;labelBackgroundColor=none;exitX=0.5;exitY=0;exitDx=0;exitDy=0;entryX=0.5;entryY=0.88;entryDx=0;entryDy=0;entryPerimeter=0;" edge="1" parent="WIyWlLk6GJQsqaUBKTNV-1" source="1j8bGV-t7no6MhL90qJZ-10">
          <mxGeometry relative="1" as="geometry">
            <mxPoint x="464" y="-80" as="sourcePoint" />
            <mxPoint x="474" y="59.200000000000045" as="targetPoint" />
          </mxGeometry>
        </mxCell>
        <mxCell id="1j8bGV-t7no6MhL90qJZ-24" value="" style="edgeStyle=orthogonalEdgeStyle;rounded=0;html=1;jettySize=auto;orthogonalLoop=1;fontSize=11;endArrow=block;endFill=0;endSize=8;strokeWidth=1;shadow=0;labelBackgroundColor=none;exitX=0.932;exitY=0.5;exitDx=0;exitDy=0;exitPerimeter=0;entryX=0;entryY=0.5;entryDx=0;entryDy=0;" edge="1" parent="WIyWlLk6GJQsqaUBKTNV-1" source="1j8bGV-t7no6MhL90qJZ-22" target="1j8bGV-t7no6MhL90qJZ-26">
          <mxGeometry relative="1" as="geometry">
            <mxPoint x="586.5" y="9.970000000000027" as="sourcePoint" />
            <mxPoint x="620" y="30" as="targetPoint" />
            <Array as="points">
              <mxPoint x="600" y="25" />
              <mxPoint x="600" y="25" />
            </Array>
          </mxGeometry>
        </mxCell>
        <mxCell id="1j8bGV-t7no6MhL90qJZ-25" value="" style="edgeStyle=orthogonalEdgeStyle;rounded=0;html=1;jettySize=auto;orthogonalLoop=1;fontSize=11;endArrow=block;endFill=0;endSize=8;strokeWidth=1;shadow=0;labelBackgroundColor=none;entryX=0.5;entryY=1;entryDx=0;entryDy=0;exitX=1;exitY=0.5;exitDx=0;exitDy=0;exitPerimeter=0;" edge="1" parent="WIyWlLk6GJQsqaUBKTNV-1" source="1j8bGV-t7no6MhL90qJZ-13" target="1j8bGV-t7no6MhL90qJZ-28">
          <mxGeometry relative="1" as="geometry">
            <mxPoint x="640" y="380" as="sourcePoint" />
            <mxPoint x="689" y="220" as="targetPoint" />
          </mxGeometry>
        </mxCell>
        <mxCell id="1j8bGV-t7no6MhL90qJZ-26" value="ResNet50 CNN" style="rounded=1;whiteSpace=wrap;html=1;fontSize=12;glass=0;strokeWidth=1;shadow=0;" vertex="1" parent="WIyWlLk6GJQsqaUBKTNV-1">
          <mxGeometry x="625" y="5" width="120" height="40" as="geometry" />
        </mxCell>
        <mxCell id="1j8bGV-t7no6MhL90qJZ-28" value="Pairwise Cosine Similarity" style="rounded=1;whiteSpace=wrap;html=1;fontSize=12;glass=0;strokeWidth=1;shadow=0;" vertex="1" parent="WIyWlLk6GJQsqaUBKTNV-1">
          <mxGeometry x="625" y="180" width="120" height="40" as="geometry" />
        </mxCell>
        <mxCell id="1j8bGV-t7no6MhL90qJZ-29" value="" style="edgeStyle=orthogonalEdgeStyle;rounded=0;html=1;jettySize=auto;orthogonalLoop=1;fontSize=11;endArrow=block;endFill=0;endSize=8;strokeWidth=1;shadow=0;labelBackgroundColor=none;entryX=0.5;entryY=0;entryDx=0;entryDy=0;exitX=0.5;exitY=1;exitDx=0;exitDy=0;" edge="1" parent="WIyWlLk6GJQsqaUBKTNV-1" source="1j8bGV-t7no6MhL90qJZ-26" target="1j8bGV-t7no6MhL90qJZ-28">
          <mxGeometry relative="1" as="geometry">
            <mxPoint x="689" y="30" as="sourcePoint" />
            <mxPoint x="689" y="180" as="targetPoint" />
            <Array as="points" />
          </mxGeometry>
        </mxCell>
        <mxCell id="1j8bGV-t7no6MhL90qJZ-31" value="Top 10 Pairwise Dissimilar" style="rounded=1;whiteSpace=wrap;html=1;fontSize=12;glass=0;strokeWidth=1;shadow=0;" vertex="1" parent="WIyWlLk6GJQsqaUBKTNV-1">
          <mxGeometry x="770" y="160" width="220" height="40" as="geometry" />
        </mxCell>
        <mxCell id="1j8bGV-t7no6MhL90qJZ-32" value="Top 10 CNN Recommendations" style="rounded=1;whiteSpace=wrap;html=1;fontSize=12;glass=0;strokeWidth=1;shadow=0;" vertex="1" parent="WIyWlLk6GJQsqaUBKTNV-1">
          <mxGeometry x="770" y="200" width="220" height="40" as="geometry" />
        </mxCell>
        <mxCell id="1j8bGV-t7no6MhL90qJZ-33" value="Top 10 Pairwise Recommenations" style="rounded=1;whiteSpace=wrap;html=1;fontSize=12;glass=0;strokeWidth=1;shadow=0;" vertex="1" parent="WIyWlLk6GJQsqaUBKTNV-1">
          <mxGeometry x="770" y="120" width="220" height="40" as="geometry" />
        </mxCell>
        <mxCell id="1j8bGV-t7no6MhL90qJZ-34" value="Top 10 CNN Dissimilar" style="rounded=1;whiteSpace=wrap;html=1;fontSize=12;glass=0;strokeWidth=1;shadow=0;" vertex="1" parent="WIyWlLk6GJQsqaUBKTNV-1">
          <mxGeometry x="770" y="240" width="220" height="40" as="geometry" />
        </mxCell>
        <mxCell id="1j8bGV-t7no6MhL90qJZ-35" value="" style="rounded=0;html=1;jettySize=auto;orthogonalLoop=1;fontSize=11;endArrow=block;endFill=0;endSize=8;strokeWidth=1;shadow=0;labelBackgroundColor=none;edgeStyle=orthogonalEdgeStyle;entryX=0;entryY=0;entryDx=0;entryDy=0;exitX=1;exitY=0.5;exitDx=0;exitDy=0;" edge="1" parent="WIyWlLk6GJQsqaUBKTNV-1" source="WIyWlLk6GJQsqaUBKTNV-10" target="1j8bGV-t7no6MhL90qJZ-8">
          <mxGeometry relative="1" as="geometry">
            <mxPoint x="421" y="200" as="sourcePoint" />
            <mxPoint x="455" y="200" as="targetPoint" />
          </mxGeometry>
        </mxCell>
        <mxCell id="1j8bGV-t7no6MhL90qJZ-42" value="" style="rounded=0;html=1;jettySize=auto;orthogonalLoop=1;fontSize=11;endArrow=block;endFill=0;endSize=8;strokeWidth=1;shadow=0;labelBackgroundColor=none;edgeStyle=orthogonalEdgeStyle;entryX=0;entryY=0.5;entryDx=0;entryDy=0;exitX=1;exitY=0;exitDx=0;exitDy=0;" edge="1" parent="WIyWlLk6GJQsqaUBKTNV-1" source="1j8bGV-t7no6MhL90qJZ-32" target="1j8bGV-t7no6MhL90qJZ-43">
          <mxGeometry relative="1" as="geometry">
            <mxPoint x="1000" y="200" as="sourcePoint" />
            <mxPoint x="1052" y="200" as="targetPoint" />
            <Array as="points">
              <mxPoint x="1010" y="200" />
              <mxPoint x="1010" y="200" />
            </Array>
          </mxGeometry>
        </mxCell>
        <mxCell id="1j8bGV-t7no6MhL90qJZ-43" value="Playlist Generator" style="rhombus;whiteSpace=wrap;html=1;shadow=0;fontFamily=Helvetica;fontSize=12;align=center;strokeWidth=1;spacing=6;spacingTop=-4;" vertex="1" parent="WIyWlLk6GJQsqaUBKTNV-1">
          <mxGeometry x="1030" y="150" width="130" height="100" as="geometry" />
        </mxCell>
        <mxCell id="1j8bGV-t7no6MhL90qJZ-45" value="Recommendations sent to User" style="rounded=1;whiteSpace=wrap;html=1;fontSize=12;glass=0;strokeWidth=1;shadow=0;" vertex="1" parent="WIyWlLk6GJQsqaUBKTNV-1">
          <mxGeometry x="1191" y="180" width="120" height="40" as="geometry" />
        </mxCell>
        <mxCell id="1j8bGV-t7no6MhL90qJZ-46" value="" style="rounded=0;html=1;jettySize=auto;orthogonalLoop=1;fontSize=11;endArrow=block;endFill=0;endSize=8;strokeWidth=1;shadow=0;labelBackgroundColor=none;edgeStyle=orthogonalEdgeStyle;entryX=0;entryY=0.5;entryDx=0;entryDy=0;exitX=1;exitY=0.5;exitDx=0;exitDy=0;" edge="1" parent="WIyWlLk6GJQsqaUBKTNV-1" source="1j8bGV-t7no6MhL90qJZ-43" target="1j8bGV-t7no6MhL90qJZ-45">
          <mxGeometry relative="1" as="geometry">
            <mxPoint x="1180" y="200" as="sourcePoint" />
            <mxPoint x="1220" y="200" as="targetPoint" />
            <Array as="points" />
          </mxGeometry>
        </mxCell>
        <mxCell id="1j8bGV-t7no6MhL90qJZ-48" value="" style="rounded=0;html=1;jettySize=auto;orthogonalLoop=1;fontSize=11;endArrow=block;endFill=0;endSize=8;strokeWidth=1;shadow=0;labelBackgroundColor=none;edgeStyle=orthogonalEdgeStyle;exitX=1;exitY=0.5;exitDx=0;exitDy=0;entryX=0;entryY=0;entryDx=0;entryDy=0;" edge="1" parent="WIyWlLk6GJQsqaUBKTNV-1" source="1j8bGV-t7no6MhL90qJZ-28" target="1j8bGV-t7no6MhL90qJZ-32">
          <mxGeometry relative="1" as="geometry">
            <mxPoint x="745" y="290" as="sourcePoint" />
            <mxPoint x="770" y="200" as="targetPoint" />
          </mxGeometry>
        </mxCell>
      </root>
    </mxGraphModel>
  </diagram>
</mxfile>
